<svg width="605" height="160" viewBox="0 0 605 160" fill="none" xmlns="http://www.w3.org/2000/svg">
<path d="M185.16 69.88C190.387 69.88 194.547 71.5867 197.64 75C200.787 78.36 202.36 83 202.36 88.92V115H188.76V90.76C188.76 87.7733 187.987 85.4533 186.44 83.8C184.893 82.1467 182.813 81.32 180.2 81.32C177.587 81.32 175.507 82.1467 173.96 83.8C172.413 85.4533 171.64 87.7733 171.64 90.76V115H157.96V70.36H171.64V76.28C173.027 74.3067 174.893 72.76 177.24 71.64C179.587 70.4667 182.227 69.88 185.16 69.88ZM232.186 115.64C227.813 115.64 223.866 114.707 220.346 112.84C216.88 110.973 214.133 108.307 212.106 104.84C210.133 101.373 209.146 97.32 209.146 92.68C209.146 88.0933 210.16 84.0667 212.186 80.6C214.213 77.08 216.986 74.3867 220.506 72.52C224.026 70.6533 227.973 69.72 232.346 69.72C236.72 69.72 240.666 70.6533 244.186 72.52C247.706 74.3867 250.48 77.08 252.506 80.6C254.533 84.0667 255.546 88.0933 255.546 92.68C255.546 97.2667 254.506 101.32 252.426 104.84C250.4 108.307 247.6 110.973 244.026 112.84C240.506 114.707 236.56 115.64 232.186 115.64ZM232.186 103.8C234.8 103.8 237.013 102.84 238.826 100.92C240.693 99 241.626 96.2533 241.626 92.68C241.626 89.1067 240.72 86.36 238.906 84.44C237.146 82.52 234.96 81.56 232.346 81.56C229.68 81.56 227.466 82.52 225.706 84.44C223.946 86.3067 223.066 89.0533 223.066 92.68C223.066 96.2533 223.92 99 225.626 100.92C227.386 102.84 229.573 103.8 232.186 103.8ZM287.684 103.4V115H280.724C275.764 115 271.897 113.8 269.124 111.4C266.35 108.947 264.964 104.973 264.964 99.48V81.72H259.524V70.36H264.964V59.48H278.644V70.36H287.604V81.72H278.644V99.64C278.644 100.973 278.964 101.933 279.604 102.52C280.244 103.107 281.31 103.4 282.804 103.4H287.684ZM337.384 91.96C337.384 93.24 337.304 94.5733 337.144 95.96H306.184C306.397 98.7333 307.277 100.867 308.824 102.36C310.424 103.8 312.37 104.52 314.664 104.52C318.077 104.52 320.45 103.08 321.784 100.2H336.344C335.597 103.133 334.237 105.773 332.264 108.12C330.344 110.467 327.917 112.307 324.984 113.64C322.05 114.973 318.77 115.64 315.144 115.64C310.77 115.64 306.877 114.707 303.464 112.84C300.05 110.973 297.384 108.307 295.464 104.84C293.544 101.373 292.584 97.32 292.584 92.68C292.584 88.04 293.517 83.9867 295.384 80.52C297.304 77.0533 299.97 74.3867 303.384 72.52C306.797 70.6533 310.717 69.72 315.144 69.72C319.464 69.72 323.304 70.6267 326.664 72.44C330.024 74.2533 332.637 76.84 334.504 80.2C336.424 83.56 337.384 87.48 337.384 91.96ZM323.384 88.36C323.384 86.0133 322.584 84.1467 320.984 82.76C319.384 81.3733 317.384 80.68 314.984 80.68C312.69 80.68 310.744 81.3467 309.144 82.68C307.597 84.0133 306.637 85.9067 306.264 88.36H323.384Z" fill="#00032C"/>
<path d="M358.281 77.8C359.881 75.3467 361.881 73.4267 364.281 72.04C366.681 70.6 369.347 69.88 372.281 69.88V84.36H368.521C365.107 84.36 362.547 85.1067 360.841 86.6C359.134 88.04 358.281 90.6 358.281 94.28V115H344.601V70.36H358.281V77.8ZM420.899 91.96C420.899 93.24 420.819 94.5733 420.659 95.96H389.699C389.913 98.7333 390.793 100.867 392.339 102.36C393.939 103.8 395.886 104.52 398.179 104.52C401.593 104.52 403.966 103.08 405.299 100.2H419.859C419.113 103.133 417.753 105.773 415.779 108.12C413.859 110.467 411.433 112.307 408.499 113.64C405.566 114.973 402.286 115.64 398.659 115.64C394.286 115.64 390.393 114.707 386.979 112.84C383.566 110.973 380.899 108.307 378.979 104.84C377.059 101.373 376.099 97.32 376.099 92.68C376.099 88.04 377.033 83.9867 378.899 80.52C380.819 77.0533 383.486 74.3867 386.899 72.52C390.313 70.6533 394.233 69.72 398.659 69.72C402.979 69.72 406.819 70.6267 410.179 72.44C413.539 74.2533 416.153 76.84 418.019 80.2C419.939 83.56 420.899 87.48 420.899 91.96ZM406.899 88.36C406.899 86.0133 406.099 84.1467 404.499 82.76C402.899 81.3733 400.899 80.68 398.499 80.68C396.206 80.68 394.259 81.3467 392.659 82.68C391.113 84.0133 390.153 85.9067 389.779 88.36H406.899ZM425.396 92.6C425.396 88.0133 426.25 83.9867 427.956 80.52C429.716 77.0533 432.09 74.3867 435.076 72.52C438.063 70.6533 441.396 69.72 445.076 69.72C448.223 69.72 450.97 70.36 453.316 71.64C455.716 72.92 457.556 74.6 458.836 76.68V70.36H472.516V115H458.836V108.68C457.503 110.76 455.636 112.44 453.236 113.72C450.89 115 448.143 115.64 444.996 115.64C441.37 115.64 438.063 114.707 435.076 112.84C432.09 110.92 429.716 108.227 427.956 104.76C426.25 101.24 425.396 97.1867 425.396 92.6ZM458.836 92.68C458.836 89.2667 457.876 86.5733 455.956 84.6C454.09 82.6267 451.796 81.64 449.076 81.64C446.356 81.64 444.036 82.6267 442.116 84.6C440.25 86.52 439.316 89.1867 439.316 92.6C439.316 96.0133 440.25 98.7333 442.116 100.76C444.036 102.733 446.356 103.72 449.076 103.72C451.796 103.72 454.09 102.733 455.956 100.76C457.876 98.7867 458.836 96.0933 458.836 92.68ZM479.693 92.6C479.693 88.0133 480.546 83.9867 482.253 80.52C484.013 77.0533 486.386 74.3867 489.373 72.52C492.36 70.6533 495.693 69.72 499.373 69.72C502.306 69.72 504.973 70.3333 507.373 71.56C509.826 72.7867 511.746 74.44 513.133 76.52V55.8H526.813V115H513.133V108.6C511.853 110.733 510.013 112.44 507.613 113.72C505.266 115 502.52 115.64 499.373 115.64C495.693 115.64 492.36 114.707 489.373 112.84C486.386 110.92 484.013 108.227 482.253 104.76C480.546 101.24 479.693 97.1867 479.693 92.6ZM513.133 92.68C513.133 89.2667 512.173 86.5733 510.253 84.6C508.386 82.6267 506.093 81.64 503.373 81.64C500.653 81.64 498.333 82.6267 496.413 84.6C494.546 86.52 493.613 89.1867 493.613 92.6C493.613 96.0133 494.546 98.7333 496.413 100.76C498.333 102.733 500.653 103.72 503.373 103.72C506.093 103.72 508.386 102.733 510.253 100.76C512.173 98.7867 513.133 96.0933 513.133 92.68ZM582.31 70.36L554.31 136.2H539.59L549.83 113.48L531.67 70.36H546.95L557.27 98.28L567.51 70.36H582.31Z" fill="#FFA030"/>
<path d="M593.657 115.64C591.257 115.64 589.284 114.947 587.737 113.56C586.244 112.12 585.497 110.36 585.497 108.28C585.497 106.147 586.244 104.36 587.737 102.92C589.284 101.48 591.257 100.76 593.657 100.76C596.004 100.76 597.924 101.48 599.417 102.92C600.964 104.36 601.737 106.147 601.737 108.28C601.737 110.36 600.964 112.12 599.417 113.56C597.924 114.947 596.004 115.64 593.657 115.64Z" fill="#010972"/>
<path d="M76.4769 5.13111L7.83144 34.5833C5.81029 35.4505 4.50003 37.4384 4.50003 39.6378L4.5 108.563C4.5 110.025 5.08213 111.427 6.11779 112.459L47.4934 153.689C49.085 155.275 51.4814 155.733 53.546 154.847L122.17 125.373C124.191 124.506 125.5 122.518 125.5 120.32L125.5 51.3939C125.5 49.9319 124.918 48.53 123.882 47.498L82.5277 6.28958C80.9366 4.70407 78.5412 4.24544 76.4769 5.13111Z" fill="white" stroke="white" stroke-width="9"/>
<path d="M100 130.033L51 151.033L51 81.0334L100 130.033Z" fill="#00032C"/>
<path d="M30 30.0334L79 9.03346L79 79.0335L30 30.0334Z" fill="#00032C"/>
<rect width="19.591" height="49.2052" transform="matrix(0.918791 -0.394744 -1.74846e-07 1 61 16.7334)" fill="#FFA030"/>
<rect width="20.5005" height="49.2052" transform="matrix(-0.92198 0.387238 0.00815506 -0.999967 69.6282 143.237)" fill="#FFA030"/>
<path d="M30 30.0335L9.00001 39.0334L8.99999 109.033L30 130.033L30 30.0335Z" fill="#00032C"/>
<path d="M121 51.0335L100 30.0334L100 130.033L121 121.033L121 51.0335Z" fill="#00032C"/>
<rect width="19.9972" height="69.2848" transform="matrix(0.913546 -0.406736 0.707107 0.707107 30 30.0334)" fill="#010972"/>
<rect width="19.9972" height="69.2848" transform="matrix(-0.923711 0.38309 -0.688674 -0.725071 100.186 130.27)" fill="#010972"/>
<path d="M100 30.2149L78.8512 9.03346L78.8512 78.9285L30 30.002L30 129.852L51.1488 151.033L51.1488 81.1384L100 130.065L100 30.2149Z" fill="white"/>
</svg>
